<svg width="552" height="102" viewBox="0 0 552 102" fill="none" xmlns="http://www.w3.org/2000/svg">
<path d="M0.666667 22C0.666667 33.7821 10.2179 43.3333 22 43.3333C33.7821 43.3333 43.3333 33.7821 43.3333 22C43.3333 10.2179 33.7821 0.666667 22 0.666667C10.2179 0.666667 0.666667 10.2179 0.666667 22ZM508.667 22C508.667 33.7821 518.218 43.3333 530 43.3333C541.782 43.3333 551.333 33.7821 551.333 22C551.333 10.2179 541.782 0.666667 530 0.666667C518.218 0.666667 508.667 10.2179 508.667 22ZM20.2945 25.6182C120.87 73.0266 199.598 99.654 277.908 100.997C356.297 102.341 433.776 78.3473 531.896 25.522L528.104 18.478C430.622 70.9598 354.538 94.3093 278.045 92.9978C201.474 91.685 124.003 65.659 23.7055 18.3818L20.2945 25.6182Z" fill="black"/>
</svg>
