<svg width="552" height="150" viewBox="0 0 552 150" fill="none" xmlns="http://www.w3.org/2000/svg">
<path d="M0.666667 128C0.666667 139.782 10.2179 149.333 22 149.333C33.7821 149.333 43.3333 139.782 43.3333 128C43.3333 116.218 33.7821 106.667 22 106.667C10.2179 106.667 0.666667 116.218 0.666667 128ZM508.667 128C508.667 139.782 518.218 149.333 530 149.333C541.782 149.333 551.333 139.782 551.333 128C551.333 116.218 541.782 106.667 530 106.667C518.218 106.667 508.667 116.218 508.667 128ZM24.5318 131.097C130.049 44.8285 209.777 6.38943 285.702 8.33643C361.656 10.2842 434.893 52.6655 527.414 131.052L532.586 124.948C439.866 46.3931 364.796 2.36207 285.907 0.339062C206.989 -1.68471 125.337 38.3471 19.4682 124.903L24.5318 131.097Z" fill="black"/>
</svg>
