<svg width="1147" height="1147" viewBox="0 0 1147 1147" fill="none" xmlns="http://www.w3.org/2000/svg">
<path d="M1147 573.5C1147 890.235 890.235 1147 573.5 1147C256.765 1147 0 890.235 0 573.5C0 256.765 256.765 0 573.5 0C890.235 0 1147 256.765 1147 573.5Z" fill="#00D1FF"/>
<path d="M541 433.5C541 529.874 471.604 608 386 608C300.396 608 231 529.874 231 433.5C231 337.126 300.396 259 386 259C471.604 259 541 337.126 541 433.5Z" fill="#1C1C1C"/>
<path d="M923 433.5C923 529.874 853.604 608 768 608C682.396 608 613 529.874 613 433.5C613 337.126 682.396 259 768 259C853.604 259 923 337.126 923 433.5Z" fill="#1C1C1C"/>
<path d="M397.352 320.375C403.379 332.181 383.543 354.373 353.046 369.943C322.549 385.513 292.94 388.565 286.913 376.759C280.886 364.954 300.723 342.762 331.22 327.192C361.717 311.622 391.325 308.57 397.352 320.375Z" fill="#D9D9D9"/>
<path d="M779.352 320.375C785.379 332.181 765.543 354.373 735.046 369.943C704.549 385.513 674.94 388.565 668.913 376.759C662.886 364.954 682.723 342.762 713.22 327.192C743.717 311.622 773.325 308.57 779.352 320.375Z" fill="#D9D9D9"/>
<path d="M285.667 836C285.667 847.782 295.218 857.333 307 857.333C318.782 857.333 328.333 847.782 328.333 836C328.333 824.218 318.782 814.667 307 814.667C295.218 814.667 285.667 824.218 285.667 836ZM793.667 836C793.667 847.782 803.218 857.333 815 857.333C826.782 857.333 836.333 847.782 836.333 836C836.333 824.218 826.782 814.667 815 814.667C803.218 814.667 793.667 824.218 793.667 836ZM304.014 838.662C376.397 919.841 444.808 960.765 506.913 976.148C569.053 991.54 624.466 981.26 670.622 960.781C716.724 940.327 753.624 909.69 778.96 884.244C791.639 871.509 801.453 860.044 808.105 851.751C811.431 847.603 813.969 844.247 815.682 841.918C816.538 840.754 817.188 839.847 817.626 839.226C817.846 838.915 818.013 838.676 818.126 838.513C818.183 838.431 818.226 838.368 818.256 838.324C818.271 838.303 818.283 838.286 818.291 838.273C818.295 838.267 818.299 838.262 818.301 838.259C818.304 838.255 818.306 838.252 815 836C811.694 833.748 811.694 833.748 811.694 833.748C811.693 833.75 811.691 833.752 811.689 833.756C811.684 833.763 811.675 833.776 811.663 833.793C811.64 833.827 811.603 833.881 811.553 833.953C811.453 834.097 811.299 834.317 811.094 834.608C810.683 835.189 810.062 836.056 809.236 837.179C807.585 839.424 805.116 842.692 801.864 846.745C795.36 854.854 785.736 866.1 773.29 878.6C748.376 903.622 712.276 933.548 667.378 953.469C622.534 973.365 568.947 983.272 508.837 968.383C448.692 953.485 381.603 913.659 309.986 833.338L304.014 838.662Z" fill="black"/>
</svg>
