<svg width="552" height="85" viewBox="0 0 552 85" fill="none" xmlns="http://www.w3.org/2000/svg">
<path d="M0.666667 63.0002C0.666667 74.7822 10.2179 84.3335 22 84.3335C33.7821 84.3335 43.3333 74.7822 43.3333 63.0002C43.3333 51.2181 33.7821 41.6668 22 41.6668C10.2179 41.6668 0.666667 51.2181 0.666667 63.0002ZM508.667 63.0002C508.667 74.7822 518.218 84.3335 530 84.3335C541.782 84.3335 551.333 74.7822 551.333 63.0002C551.333 51.2181 541.782 41.6668 530 41.6668C518.218 41.6668 508.667 51.2181 508.667 63.0002ZM23.4907 66.712C128.89 24.3835 209.017 6.64139 285.709 8.27198C362.431 9.9032 436.07 30.9257 528.556 66.7304L531.444 59.2699C438.676 23.3561 364.001 1.93478 285.879 0.273789C207.728 -1.38783 126.482 16.7294 20.5093 59.2883L23.4907 66.712Z" fill="black"/>
</svg>
