<svg width="1147" height="1147" viewBox="0 0 1147 1147" fill="none" xmlns="http://www.w3.org/2000/svg">
<path d="M1147 573.5C1147 890.235 890.235 1147 573.5 1147C256.765 1147 0 890.235 0 573.5C0 256.765 256.765 0 573.5 0C890.235 0 1147 256.765 1147 573.5Z" fill="#00D1FF"/>
<path d="M541 433.5C541 529.874 471.604 608 386 608C300.396 608 231 529.874 231 433.5C231 337.126 300.396 259 386 259C471.604 259 541 337.126 541 433.5Z" fill="#1C1C1C"/>
<path d="M923 433.5C923 529.874 853.604 608 768 608C682.396 608 613 529.874 613 433.5C613 337.126 682.396 259 768 259C853.604 259 923 337.126 923 433.5Z" fill="#1C1C1C"/>
<path d="M397.352 320.375C403.379 332.181 383.543 354.373 353.046 369.943C322.549 385.513 292.94 388.565 286.913 376.759C280.886 364.954 300.723 342.762 331.22 327.192C361.717 311.622 391.325 308.57 397.352 320.375Z" fill="#D9D9D9"/>
<path d="M779.352 320.375C785.379 332.181 765.543 354.373 735.046 369.943C704.549 385.513 674.94 388.565 668.913 376.759C662.886 364.954 682.723 342.762 713.22 327.192C743.717 311.622 773.325 308.57 779.352 320.375Z" fill="#D9D9D9"/>
<path d="M285.667 836C285.667 847.782 295.218 857.333 307 857.333C318.782 857.333 328.333 847.782 328.333 836C328.333 824.218 318.782 814.667 307 814.667C295.218 814.667 285.667 824.218 285.667 836ZM793.667 836C793.667 847.782 803.218 857.333 815 857.333C826.782 857.333 836.333 847.782 836.333 836C836.333 824.218 826.782 814.667 815 814.667C803.218 814.667 793.667 824.218 793.667 836ZM307 840H815V832H307V840Z" fill="black"/>
</svg>
